<?xml version="1.0" ?>
<!-- Uploaded to: SVG Repo, www.svgrepo.com, Generator: SVG Repo Mixer Tools -->
<svg width="800px" height="800px" viewBox="0 0 32 32" xmlns="http://www.w3.org/2000/svg">
<title/>
<g data-name="Brick Wall" id="Brick_Wall">
<rect height="2.015" style="fill:#444" width="5.317" x="6.523" y="21.194"/>
<rect height="2.015" style="fill:#444" width="5.317" x="13.14" y="21.194"/>
<rect height="2.015" style="fill:#444" width="5.317" x="19.757" y="21.194"/>
<rect height="2.015" style="fill:#444" width="5.317" x="6.523" y="14.551"/>
<rect height="2.015" style="fill:#444" width="5.317" x="13.14" y="14.551"/>
<rect height="2.015" style="fill:#444" width="5.317" x="19.757" y="14.551"/>
<rect height="2.015" style="fill:#444" width="4.81" x="3.676" y="24.509"/>
<rect height="2.015" style="fill:#444" width="5.304" x="9.786" y="24.509"/>
<rect height="2.015" style="fill:#444" width="5.317" x="16.39" y="24.509"/>
<rect height="2.015" style="fill:#444" width="5.317" x="23.007" y="24.509"/>
<rect height="2.028" style="fill:#444" width="4.81" x="3.676" y="17.866"/>
<rect height="2.028" style="fill:#444" width="5.304" x="9.786" y="17.866"/>
<rect height="2.028" style="fill:#444" width="5.317" x="16.39" y="17.866"/>
<rect height="2.028" style="fill:#444" width="5.317" x="23.007" y="17.866"/>
<rect height="2.015" style="fill:#444" width="4.81" x="3.676" y="11.236"/>
<rect height="2.015" style="fill:#444" width="5.304" x="9.786" y="11.236"/>
<rect height="2.015" style="fill:#444" width="5.317" x="16.39" y="11.236"/>
<rect height="2.015" style="fill:#444" width="5.317" x="23.007" y="11.236"/>
</g>
</svg>